# xmcd
#
# Track frame offsets:
#	150
#	15137
#	29475
#	48453
#	67628
#	91412
#	115318
#	137668
#	151739
#	168763
#	182267
#	210743
#	232530
#	259625
#
# Disc length: 3925 seconds
#
# Revision: 0
# Processed by: cddbd v1.5.2PL0 Copyright (c) Steve Scherf et al.
# Submitted via: audiograbber 1.83.01
#
DISCID=990f530e
DTITLE=Various Artist - stereoplay 2017-06 - HIGH END Reference Tracks
DYEAR=2017
DGENRE=Audiophile
TTITLE0=Flying Pickets - Walk The Dinosaur
TTITLE1=Sticks And Stones - Sticks And Stones
TTITLE2=Claire Martin and Ray Gelato - Come Dance With Me
TTITLE3=Mckinley Black - My Diamond Mine
TTITLE4=Jen Chapin - Master Blaster (Jammin')
TTITLE5=Rosanna and Zélia - Moldura
TTITLE6=Alan Taylor - Chimes At Midnight
TTITLE7=Yamina - Living Dead
TTITLE8=Eric Bibb - My Honey Pie
TTITLE9=Ina Forsman - I Want A Little Sugar In My Bowl
TTITLE10=Maurice Ravel - La Vallée Des Cloches (aus "Miroirs") [Evgeni Koroliov
TTITLE10=]
TTITLE11=Johann Sebastian Bach - Doppelkonzert BWV 1060R, Adagio [Dunedin Conso
TTITLE11=rt]
TTITLE12=Charles-Marie Widor - Orgelsymphonie Nr. 5, Toccata [Ben van Oosten]
TTITLE13=Anton Rubinstein - Der Dämon, Erster Tanz - Allegro [Wuppertal Symphon
TTITLE13=y Orchestra]
EXTD=
EXTT0=
EXTT1=
EXTT2=
EXTT3=
EXTT4=
EXTT5=
EXTT6=
EXTT7=
EXTT8=
EXTT9=
EXTT10=
EXTT11=
EXTT12=
EXTT13=
PLAYORDER=
